<svg width="188" height="221" viewBox="0 0 188 221" fill="none" xmlns="http://www.w3.org/2000/svg">
<path d="M73.2 34.6844C71.85 35.0644 70.5 35.4644 69.16 35.9044C70.5 35.4544 71.85 35.0444 73.2 34.6844Z" fill="white"/>
<path d="M81.4701 0.684444C80.0501 0.844444 78.6401 1.02444 77.2301 1.24444C78.6401 1.01444 80.0501 0.844444 81.4701 0.684444Z" fill="white"/>
<path d="M81.43 32.9244C80.05 33.1444 78.67 33.4044 77.3 33.6944C78.67 33.4044 80.05 33.1544 81.43 32.9244Z" fill="white"/>
<path d="M58.8 5.64444C60.12 5.21444 61.43 4.80444 62.75 4.41444C61.43 4.78444 60.12 5.19444 58.8 5.64444ZM69.1601 35.9044C70.5001 35.4644 71.85 35.0544 73.2 34.6844C71.85 35.0544 70.5001 35.4544 69.1601 35.9044ZM77.2301 1.24444C78.6401 1.02444 80.0501 0.854444 81.4701 0.684444C80.0501 0.834444 78.6401 1.01444 77.2301 1.24444ZM77.3001 33.6944C78.6701 33.4144 80.0501 33.1544 81.43 32.9244C80.0501 33.1444 78.6701 33.3944 77.3001 33.6944Z" fill="white"/>
<path d="M168.77 29.5644L146.93 53.0244C146.26 52.4144 145.59 51.8144 144.92 51.2244C144.25 50.6444 143.57 50.0644 142.87 49.5044C142.48 49.1844 142.09 48.8744 141.7 48.5644C140.31 47.4844 138.9 46.4544 137.46 45.4844C137.16 45.2744 136.86 45.0644 136.54 44.8644C136.51 44.8444 136.48 44.8244 136.45 44.8044C136 44.5144 135.55 44.2144 135.08 43.9344C134.79 43.7544 134.52 43.5744 134.23 43.4044C133.87 43.1744 133.49 42.9544 133.12 42.7344C132.89 42.5944 132.64 42.4544 132.39 42.3144C131.88 42.0144 131.37 41.7444 130.85 41.4644C130.49 41.2744 130.14 41.0744 129.78 40.8844C129.34 40.6444 128.9 40.4344 128.45 40.2044C128.09 40.0344 127.74 39.8544 127.39 39.6844C126.62 39.3144 125.83 38.9544 125.04 38.6144C124.65 38.4444 124.26 38.2644 123.86 38.1044C123.46 37.9344 123.07 37.7744 122.67 37.6044C121.88 37.2944 121.07 36.9844 120.27 36.6944C119.47 36.3944 118.67 36.1244 117.86 35.8644C117.05 35.5944 116.24 35.3444 115.42 35.0944C113.79 34.6244 112.15 34.1944 110.49 33.8344C109.8 33.6844 109.13 33.5444 108.44 33.4144C107.83 33.3044 107.22 33.1944 106.61 33.0844C105.98 32.9844 105.35 32.8744 104.7 32.7844C104.38 32.7444 104.06 32.6944 103.74 32.6644C103.24 32.5944 102.74 32.5244 102.24 32.4744C101.76 32.4244 101.28 32.3744 100.81 32.3344C100.72 32.3244 100.63 32.3144 100.54 32.3044C100.31 32.2944 100.09 32.2544 99.87 32.2444C99.54 32.2144 99.2 32.1944 98.86 32.1744C98.47 32.1444 98.08 32.1244 97.69 32.1044C97.3 32.0844 96.92 32.0644 96.53 32.0544C96.25 32.0444 95.97 32.0244 95.69 32.0244C95.63 32.0244 95.57 32.0244 95.51 32.0244C95.08 32.0244 94.63 32.0044 94.18 32.0144C93.97 32.0044 93.77 32.0144 93.55 32.0144C92.98 32.0144 92.41 32.0144 91.84 32.0244C90.45 32.0644 89.05 32.1244 87.66 32.2344C87.25 32.2644 86.83 32.2944 86.42 32.3444C86 32.3744 85.59 32.4144 85.17 32.4744C84.62 32.5244 84.05 32.5944 83.49 32.6644C82.81 32.7644 82.12 32.8544 81.42 32.9644C80.04 33.1844 78.66 33.4344 77.29 33.7344C75.92 34.0244 74.56 34.3644 73.19 34.7244C71.84 35.0944 70.49 35.4944 69.15 35.9444C68.66 36.1044 68.18 36.2744 67.7 36.4444C67.32 36.5744 66.94 36.7044 66.56 36.8544C66.08 37.0244 65.61 37.2044 65.12 37.4044C64.62 37.6044 64.11 37.8144 63.6 38.0144C63.52 38.0444 63.44 38.0844 63.37 38.1144C63.15 38.2044 62.95 38.2944 62.74 38.3844C62.63 38.4244 62.51 38.4744 62.42 38.5144C62.01 38.6844 61.61 38.8744 61.21 39.0544C60.68 39.2944 60.16 39.5344 59.65 39.7944C59.63 39.8144 59.62 39.8144 59.59 39.8244C59.31 39.9644 59.01 40.1044 58.72 40.2544C58.43 40.4044 58.14 40.5544 57.86 40.7044C57.81 40.7244 57.75 40.7544 57.7 40.7844L56.02 41.6844C55.96 41.7144 55.92 41.7444 55.88 41.7644C55.64 41.9044 55.41 42.0244 55.17 42.1544C55.12 42.1844 55.08 42.2244 55.04 42.2444C54.72 42.4344 54.4 42.6044 54.09 42.7944L63.41 55.0244L49.11 56.8644L16.5 61.0544L15.98 61.1244L0 63.1344L6.21 48.2744L24.64 4.15444L34.55 17.1544C35.14 16.7744 35.73 16.4144 36.32 16.0644C36.63 15.8644 36.94 15.6844 37.25 15.4944C37.29 15.4744 37.32 15.4444 37.36 15.4344C37.4 15.4144 37.44 15.3744 37.48 15.3544C37.52 15.3344 37.57 15.3044 37.61 15.2944C37.89 15.1244 38.18 14.9544 38.45 14.7944C38.65 14.6844 38.85 14.5744 39.06 14.4544C39.26 14.3444 39.46 14.2244 39.66 14.1144C39.8 14.0244 39.95 13.9444 40.09 13.8744C40.48 13.6444 40.86 13.4444 41.26 13.2244C41.28 13.2044 41.33 13.1944 41.35 13.1744C41.39 13.1544 41.44 13.1244 41.48 13.1044C41.52 13.0844 41.57 13.0644 41.6 13.0444C42.7 12.4544 43.8 11.8944 44.91 11.3444C45.39 11.1144 45.86 10.8844 46.32 10.6644C46.59 10.5444 46.85 10.4144 47.12 10.2844C47.38 10.1744 47.63 10.0544 47.9 9.94444C47.9 9.94444 47.91 9.92445 47.92 9.91444C48.45 9.67445 48.99 9.43444 49.53 9.20444C49.97 9.00445 50.43 8.81445 50.88 8.63445C50.97 8.59445 51.04 8.55444 51.14 8.52444C51.18 8.50444 51.23 8.47445 51.27 8.46445C51.39 8.42445 51.5 8.37444 51.61 8.33444C51.75 8.26445 51.9 8.20444 52.05 8.14444C52.11 8.12444 52.18 8.08444 52.25 8.06444C52.7 7.87444 53.15 7.69444 53.6 7.52444C53.79 7.44444 54 7.37444 54.19 7.28444C54.68 7.10444 55.17 6.91444 55.66 6.74444C55.97 6.61444 56.29 6.51444 56.62 6.39444C56.83 6.32444 57.04 6.25444 57.26 6.17444C57.31 6.15444 57.37 6.14444 57.42 6.11444C57.88 5.96444 58.33 5.80444 58.77 5.65444C60.09 5.22444 61.4 4.81444 62.72 4.42444C63.34 4.24444 63.96 4.07444 64.6 3.89444C64.63 3.89444 64.67 3.87444 64.72 3.86444C64.72 3.86444 64.7267 3.86444 64.74 3.86444C65.3 3.71444 65.87 3.56444 66.43 3.42444C66.61 3.37444 66.81 3.32444 66.99 3.28444C67.47 3.16444 67.95 3.05444 68.44 2.93444C68.64 2.89444 68.85 2.83444 69.06 2.79444C69.37 2.72444 69.68 2.65444 69.99 2.57444C70.3 2.50444 70.62 2.44444 70.93 2.38444C71.23 2.31444 71.55 2.25444 71.85 2.18444C72.15 2.12444 72.46 2.06444 72.78 2.00444C73.03 1.95444 73.28 1.90444 73.55 1.85444C73.69 1.82444 73.82 1.80444 73.96 1.78444C74.35 1.71444 74.73 1.64444 75.11 1.58444C75.56 1.49444 76 1.42444 76.45 1.35444C76.71 1.32444 76.97 1.27444 77.21 1.24444C78.62 1.02444 80.03 0.854444 81.45 0.684444C81.97 0.624444 82.51 0.564444 83.04 0.514444C83.26 0.494444 83.48 0.464444 83.71 0.454444C83.71 0.454444 83.7133 0.454444 83.72 0.454444C84.21 0.414444 84.7 0.374444 85.19 0.334444C85.44 0.314444 85.68 0.294444 85.95 0.284444C86.35 0.254444 86.75 0.224444 87.14 0.204444C87.23 0.184444 87.33 0.184444 87.42 0.184444C87.64 0.164444 87.88 0.154444 88.12 0.144444C88.62 0.114444 89.13 0.0944444 89.64 0.0744444C89.64 0.0744444 89.68 0.0744444 89.69 0.0744444C90.28 0.0544444 90.87 0.0344444 91.47 0.0244444C92.02 0.0144444 92.57 0.00444444 93.14 0.00444444C93.17 0.00444444 93.2 -0.00555556 93.23 0.00444444C93.28 0.00444444 93.34 0.00444444 93.39 0.00444444C93.6 0.00444444 93.81 0.00444444 94.03 0.00444444C94.74 0.00444444 95.44 0.00444444 96.15 0.0244444C96.97 0.0444444 97.77 0.0744444 98.57 0.104444C104.97 0.394444 111.3 1.23444 117.48 2.60444C136.56 6.83444 154.3 16.0944 168.76 29.5644H168.77Z" fill="white"/>
<path d="M77.3001 33.6844C78.6701 33.4044 80.0501 33.1444 81.43 32.9144C80.0501 33.1344 78.6701 33.3844 77.3001 33.6844ZM69.1601 35.8944C70.5001 35.4544 71.85 35.0444 73.2 34.6744C71.85 35.0444 70.5001 35.4444 69.1601 35.8944ZM58.8 5.64444C60.12 5.21444 61.43 4.80444 62.75 4.41444C61.43 4.78444 60.12 5.19444 58.8 5.64444Z" fill="white"/>
<path d="M159.87 128.584L148.84 129.994L142.86 130.764L121.19 133.544C114.52 128.754 107.08 127.014 99.02 128.364C78.66 131.754 59.08 125.204 43.9 109.904C38.7 104.654 34.16 98.2344 30.26 91.5744L38.42 90.5244L44.4 89.7544L66.3 86.9344C66.42 87.0644 66.54 87.1944 66.67 87.3244C74.55 95.2644 83.66 98.4244 93.75 96.7444C114.13 93.3444 133.7 99.8944 148.88 115.194C153.41 119.764 156.99 124.244 159.88 128.584H159.87Z" fill="white"/>
<path d="M187.27 157.394L181.05 172.254L162.62 216.374L152.71 203.374C152.13 203.754 151.54 204.114 150.95 204.464C150.56 204.714 150.17 204.944 149.77 205.184C149.74 205.214 149.68 205.224 149.65 205.244C149.36 205.414 149.08 205.584 148.8 205.744L148.2 206.084C148 206.194 147.79 206.314 147.59 206.424C147.42 206.534 147.26 206.624 147.08 206.704C146.69 206.944 146.27 207.164 145.88 207.374C145.39 207.644 144.89 207.904 144.4 208.154C143.9 208.414 143.39 208.664 142.9 208.914C142.5 209.114 142.1 209.314 141.7 209.504C141.1 209.804 140.48 210.074 139.89 210.354C139.16 210.694 138.44 211.014 137.7 211.334C136.97 211.664 136.24 211.954 135.51 212.264C135.02 212.464 134.51 212.664 134.01 212.864C133.64 213.014 133.27 213.154 132.89 213.294C132.88 213.294 132.87 213.294 132.87 213.314C132.31 213.514 131.77 213.714 131.22 213.924C130.77 214.084 130.31 214.244 129.87 214.404C129.64 214.484 129.4 214.564 129.17 214.644C128.92 214.724 128.69 214.804 128.46 214.884C127.15 215.314 125.84 215.734 124.52 216.114C123.85 216.304 123.19 216.494 122.53 216.674C121.85 216.854 121.15 217.024 120.47 217.204C119.96 217.334 119.44 217.454 118.94 217.574C118.51 217.684 118.08 217.774 117.66 217.874C117.44 217.924 117.23 217.964 117.01 218.014C116.54 218.114 116.07 218.214 115.6 218.314C115.21 218.394 114.85 218.464 114.47 218.544C114.32 218.574 114.18 218.604 114.03 218.624C113.4 218.744 112.76 218.864 112.14 218.964C111.37 219.094 110.61 219.224 109.84 219.334C109.78 219.344 109.71 219.354 109.64 219.364C108.91 219.464 108.18 219.574 107.44 219.654C106.67 219.754 105.87 219.844 105.09 219.934C104.43 220.004 103.77 220.064 103.1 220.124C102.43 220.174 101.77 220.244 101.1 220.274C100.76 220.304 100.42 220.324 100.07 220.334C100.02 220.344 99.98 220.354 99.93 220.334C99.61 220.364 99.29 220.384 98.96 220.394C98.94 220.394 98.91 220.394 98.89 220.394C98.44 220.424 97.99 220.444 97.55 220.444C97.53 220.444 97.5 220.444 97.47 220.444C96.96 220.474 96.44 220.474 95.93 220.494C95.87 220.494 95.83 220.494 95.77 220.494C95.21 220.494 94.66 220.514 94.1 220.514C94.07 220.514 94.03 220.514 94 220.514C93.74 220.514 93.47 220.514 93.2 220.514C92.49 220.514 91.8 220.514 91.08 220.494C90.27 220.474 89.47 220.444 88.66 220.414C82.26 220.134 75.94 219.294 69.74 217.924C50.67 213.694 32.92 204.434 18.46 190.954L40.31 167.494C41.62 168.734 42.98 169.914 44.36 171.024C45.05 171.594 45.75 172.144 46.46 172.664C47.17 173.204 47.88 173.734 48.6 174.234C48.95 174.484 49.31 174.744 49.67 174.984C49.95 175.164 50.22 175.344 50.5 175.534C50.84 175.764 51.18 175.984 51.53 176.214C51.87 176.434 52.22 176.654 52.57 176.864C52.91 177.074 53.25 177.274 53.58 177.474C53.76 177.584 53.93 177.684 54.1 177.784C54.43 177.984 54.76 178.184 55.1 178.364C55.17 178.394 55.23 178.434 55.29 178.464C55.65 178.674 56.01 178.874 56.38 179.074C56.87 179.344 57.35 179.604 57.85 179.854C57.89 179.884 57.92 179.894 57.96 179.924C58 179.944 58.03 179.964 58.07 179.984C58.54 180.214 59 180.444 59.47 180.674C59.97 180.934 60.48 181.164 60.99 181.394C61.77 181.764 62.56 182.114 63.35 182.444C64.14 182.774 64.93 183.104 65.74 183.404C66.26 183.604 66.77 183.804 67.3 183.984C67.32 183.984 67.34 184.004 67.37 184.004C68.02 184.244 68.69 184.464 69.35 184.684C70.16 184.954 70.97 185.194 71.8 185.444C73.43 185.924 75.07 186.344 76.73 186.704C77.42 186.854 78.09 187.004 78.78 187.124C79.33 187.234 79.88 187.334 80.43 187.424H80.46C80.7 187.474 80.93 187.504 81.17 187.544L81.21 187.564C81.77 187.644 82.34 187.744 82.9 187.824C83.53 187.894 84.14 187.974 84.77 188.054C84.84 188.064 84.89 188.074 84.96 188.074L85.01 188.094C85.64 188.154 86.26 188.214 86.88 188.284L87.05 188.304C87.75 188.354 88.44 188.394 89.14 188.454C91.23 188.574 93.31 188.604 95.4 188.564C95.96 188.564 96.5 188.534 97.06 188.504C97.14 188.504 97.23 188.504 97.31 188.494C97.42 188.494 97.53 188.494 97.65 188.474C98.01 188.474 98.36 188.444 98.71 188.414C98.79 188.414 98.87 188.414 98.94 188.394C99.44 188.364 99.93 188.324 100.42 188.284C100.46 188.284 100.5 188.284 100.54 188.274C100.63 188.274 100.71 188.264 100.81 188.254C100.88 188.254 100.93 188.244 101.01 188.234C101.31 188.194 101.62 188.184 101.93 188.144C101.97 188.144 102 188.144 102.04 188.134C102.48 188.074 102.92 188.034 103.35 187.974C103.68 187.944 104 187.894 104.32 187.854C104.35 187.834 104.39 187.854 104.43 187.834C104.91 187.774 105.41 187.694 105.9 187.624C106.5 187.524 107.1 187.414 107.7 187.304C108.48 187.164 109.23 187.014 109.99 186.854C110.53 186.734 111.07 186.614 111.6 186.484C111.63 186.484 111.65 186.474 111.68 186.464C111.96 186.404 112.24 186.334 112.53 186.254C112.84 186.194 113.15 186.104 113.45 186.014C113.87 185.904 114.28 185.784 114.69 185.674C115.52 185.454 116.35 185.204 117.18 184.934C117.59 184.814 118 184.684 118.41 184.544C118.82 184.404 119.23 184.254 119.64 184.114C120.05 183.974 120.46 183.824 120.87 183.654C121.66 183.364 122.46 183.054 123.24 182.734C123.73 182.534 124.23 182.324 124.73 182.104C124.78 182.084 124.83 182.054 124.88 182.034C125.62 181.724 126.36 181.374 127.1 181.014C127.1 181.014 127.103 181.008 127.11 180.994C127.54 180.804 127.97 180.594 128.39 180.374C128.45 180.354 128.52 180.314 128.59 180.284C129.04 180.054 129.49 179.834 129.93 179.594C130.51 179.294 131.09 178.974 131.67 178.654C132.17 178.374 132.66 178.084 133.15 177.794L123.83 165.564L140.39 163.444L171.27 159.474L172.44 159.324L187.25 157.424L187.27 157.394Z" fill="white"/>
</svg>
