<svg width="200" height="67" viewBox="0 0 200 67" fill="none" xmlns="http://www.w3.org/2000/svg">
<path d="M19.0595 8.94947C18.708 9.04752 18.3565 9.15073 18.0076 9.26426C18.3565 9.14815 18.708 9.04236 19.0595 8.94947Z" fill="white"/>
<path d="M21.2128 0.176605C20.8431 0.217889 20.476 0.264334 20.1088 0.321099C20.476 0.261754 20.8431 0.217889 21.2128 0.176605Z" fill="white"/>
<path d="M21.2024 8.49534C20.8431 8.55211 20.4838 8.61919 20.1271 8.69402C20.4838 8.61919 20.8431 8.55469 21.2024 8.49534Z" fill="white"/>
<path d="M15.3101 1.45641C15.6538 1.34546 15.9949 1.23967 16.3386 1.13904C15.9949 1.23451 15.6538 1.3403 15.3101 1.45641ZM18.0076 9.26426C18.3565 9.15073 18.708 9.04493 19.0595 8.94946C18.708 9.04493 18.3565 9.14814 18.0076 9.26426ZM20.1088 0.321099C20.476 0.264334 20.8431 0.22047 21.2128 0.176605C20.8431 0.215309 20.476 0.261754 20.1088 0.321099ZM20.1271 8.69402C20.4838 8.62177 20.8431 8.55469 21.2024 8.49534C20.8431 8.55211 20.4838 8.61661 20.1271 8.69402Z" fill="white"/>
<path d="M43.9437 7.62838L38.257 13.6816C38.0826 13.5243 37.9081 13.3694 37.7337 13.2172C37.5592 13.0675 37.3822 12.9179 37.1999 12.7734C37.0984 12.6908 36.9968 12.6108 36.8953 12.5309C36.5334 12.2522 36.1662 11.9864 35.7913 11.7361C35.7132 11.682 35.6351 11.6278 35.5517 11.5762C35.5439 11.571 35.5361 11.5658 35.5283 11.5607C35.4111 11.4859 35.294 11.4084 35.1716 11.3362C35.0961 11.2898 35.0258 11.2433 34.9503 11.1994C34.8565 11.1401 34.7576 11.0833 34.6612 11.0266C34.6014 10.9904 34.5363 10.9543 34.4712 10.9182C34.3384 10.8408 34.2056 10.7711 34.0702 10.6989C33.9765 10.6499 33.8853 10.5982 33.7916 10.5492C33.677 10.4873 33.5625 10.4331 33.4453 10.3738C33.3516 10.3299 33.2604 10.2835 33.1693 10.2396C32.9688 10.1441 32.7631 10.0512 32.5574 9.9635C32.4559 9.91964 32.3543 9.8732 32.2502 9.83191C32.146 9.78805 32.0445 9.74676 31.9403 9.7029C31.7346 9.62291 31.5237 9.54292 31.3154 9.4681C31.1071 9.39069 30.8988 9.32102 30.6879 9.25393C30.477 9.18427 30.2661 9.11976 30.0526 9.05525C29.6282 8.93398 29.2012 8.82303 28.7689 8.73014C28.5893 8.69144 28.4148 8.65532 28.2352 8.62177C28.0763 8.59339 27.9175 8.56501 27.7587 8.53662C27.5946 8.51082 27.4306 8.48244 27.2614 8.45922C27.178 8.4489 27.0947 8.43599 27.0114 8.42825C26.8812 8.41019 26.751 8.39213 26.6208 8.37923C26.4959 8.36633 26.3709 8.35343 26.2485 8.34311C26.2251 8.34053 26.2016 8.33795 26.1782 8.33537C26.1183 8.33278 26.061 8.32246 26.0037 8.31988C25.9178 8.31214 25.8293 8.30698 25.7408 8.30182C25.6392 8.29408 25.5377 8.28892 25.4361 8.28376C25.3346 8.2786 25.2356 8.27344 25.1341 8.27086C25.0612 8.26828 24.9883 8.26312 24.9154 8.26312C24.8998 8.26312 24.8841 8.26312 24.8685 8.26312C24.7565 8.26312 24.6394 8.25796 24.5222 8.26054C24.4675 8.25796 24.4155 8.26054 24.3582 8.26054C24.2098 8.26054 24.0613 8.26054 23.9129 8.26312C23.551 8.27344 23.1865 8.28892 22.8246 8.3173C22.7178 8.32504 22.6084 8.33278 22.5017 8.34569C22.3923 8.35343 22.2856 8.36375 22.1762 8.37923C22.033 8.39213 21.8846 8.41019 21.7388 8.42825C21.5617 8.45406 21.3821 8.47728 21.1998 8.50566C20.8405 8.56243 20.4812 8.62693 20.1245 8.70434C19.7677 8.77917 19.4136 8.8669 19.0569 8.95979C18.7054 9.05526 18.3539 9.15847 18.005 9.27458C17.8774 9.31586 17.7524 9.35973 17.6275 9.40359C17.5285 9.43713 17.4296 9.47068 17.3306 9.50938C17.2056 9.55324 17.0833 9.59969 16.9557 9.65129C16.8255 9.7029 16.6927 9.75708 16.5599 9.80869C16.5391 9.81643 16.5183 9.82675 16.5 9.83449C16.4427 9.85771 16.3907 9.88094 16.336 9.90416C16.3073 9.91448 16.2761 9.92738 16.2527 9.9377C16.1459 9.98157 16.0418 10.0306 15.9376 10.077C15.7996 10.139 15.6642 10.2009 15.5314 10.268C15.5262 10.2731 15.5236 10.2731 15.5158 10.2757C15.4429 10.3118 15.3648 10.348 15.2893 10.3867C15.2138 10.4254 15.1383 10.4641 15.0654 10.5028C15.0523 10.5079 15.0367 10.5157 15.0237 10.5234L14.5863 10.7556C14.5706 10.7634 14.5602 10.7711 14.5498 10.7763C14.4873 10.8124 14.4274 10.8434 14.3649 10.8769C14.3519 10.8847 14.3415 10.895 14.3311 10.9001C14.2478 10.9492 14.1645 10.993 14.0837 11.0421L16.5104 14.1977L12.7871 14.6725L4.2962 15.7536L4.16081 15.7717L0 16.2903L1.61693 12.456L6.41566 1.07195L8.99599 4.42628C9.14961 4.32823 9.30323 4.23534 9.45686 4.14503C9.53757 4.09343 9.61829 4.04698 9.69901 3.99796C9.70942 3.9928 9.71723 3.98506 9.72765 3.98248C9.73806 3.97732 9.74848 3.967 9.75889 3.96184C9.76931 3.95667 9.78233 3.94893 9.79274 3.94635C9.86565 3.90249 9.94116 3.85863 10.0115 3.81734C10.0635 3.78896 10.1156 3.76058 10.1703 3.72961C10.2224 3.70123 10.2744 3.67027 10.3265 3.64188C10.363 3.61866 10.402 3.59802 10.4385 3.57996C10.54 3.52061 10.639 3.46901 10.7431 3.41224C10.7483 3.40708 10.7613 3.4045 10.7665 3.39934C10.777 3.39418 10.79 3.38644 10.8004 3.38128C10.8108 3.37612 10.8238 3.37096 10.8316 3.3658C11.1181 3.21356 11.4045 3.06907 11.6935 2.92715C11.8185 2.86781 11.9408 2.80846 12.0606 2.7517C12.1309 2.72073 12.1986 2.68719 12.2689 2.65365C12.3366 2.62526 12.4017 2.5943 12.472 2.56592C12.472 2.56592 12.4746 2.56076 12.4772 2.55818C12.6152 2.49625 12.7558 2.43433 12.8964 2.37498C13.011 2.32337 13.1308 2.27435 13.2479 2.22791C13.2714 2.21758 13.2896 2.20726 13.3156 2.19952C13.326 2.19436 13.3391 2.18662 13.3495 2.18404C13.3807 2.17372 13.4094 2.16082 13.438 2.1505C13.4745 2.13244 13.5135 2.11695 13.5526 2.10147C13.5682 2.09631 13.5864 2.08599 13.6046 2.08083C13.7218 2.03181 13.839 1.98536 13.9562 1.9415C14.0056 1.92086 14.0603 1.90279 14.1098 1.87957C14.2374 1.83313 14.3649 1.7841 14.4925 1.74024C14.5732 1.70669 14.6566 1.68089 14.7425 1.64993C14.7972 1.63187 14.8518 1.6138 14.9091 1.59316C14.9221 1.588 14.9378 1.58542 14.9508 1.57768C15.0706 1.53898 15.1877 1.49769 15.3023 1.45899C15.646 1.34804 15.9871 1.24225 16.3308 1.14162C16.4922 1.09517 16.6536 1.05131 16.8203 1.00487C16.8281 1.00487 16.8385 0.999705 16.8515 0.997124C16.8515 0.997124 16.8533 0.997124 16.8567 0.997124C17.0026 0.958421 17.151 0.919717 17.2968 0.883593C17.3436 0.870692 17.3957 0.857791 17.4426 0.84747C17.5676 0.816507 17.6925 0.788124 17.8201 0.757161C17.8722 0.74684 17.9269 0.731358 17.9816 0.721037C18.0623 0.702976 18.143 0.684914 18.2237 0.664272C18.3044 0.64621 18.3878 0.630729 18.4685 0.615247C18.5466 0.597185 18.6299 0.581704 18.708 0.563642C18.7861 0.54816 18.8668 0.532679 18.9502 0.517197C19.0153 0.504296 19.0804 0.491395 19.1507 0.478494C19.1871 0.470753 19.221 0.465592 19.2574 0.460432C19.359 0.44237 19.4579 0.424308 19.5568 0.408827C19.674 0.385605 19.7886 0.367543 19.9057 0.349481C19.9734 0.34174 20.0411 0.328839 20.1036 0.321098C20.4708 0.264333 20.8379 0.220468 21.2076 0.176604C21.343 0.161122 21.4836 0.145641 21.6216 0.13274C21.6789 0.127579 21.7362 0.119838 21.7961 0.117258C21.7961 0.117258 21.7969 0.117258 21.7987 0.117258C21.9263 0.106937 22.0538 0.0966161 22.1814 0.0862951C22.2465 0.0811346 22.309 0.0759741 22.3793 0.0733939C22.4835 0.0656531 22.5876 0.0579123 22.6892 0.0527518C22.7126 0.0475913 22.7386 0.0475913 22.7621 0.0475913C22.8193 0.0424308 22.8818 0.0398506 22.9443 0.0372703C23.0745 0.0295296 23.2073 0.0243691 23.3401 0.0192086C23.3401 0.0192086 23.3505 0.0192086 23.3531 0.0192086C23.5067 0.014048 23.6604 0.00888754 23.8166 0.00630729C23.9598 0.00372703 24.103 0.00114678 24.2514 0.00114678C24.2592 0.00114678 24.267 -0.00143347 24.2749 0.00114678C24.2879 0.00114678 24.3035 0.00114678 24.3165 0.00114678C24.3712 0.00114678 24.4259 0.00114678 24.4832 0.00114678C24.668 0.00114678 24.8503 0.00114678 25.0352 0.00630729C25.2487 0.0114678 25.457 0.0192086 25.6653 0.0269493C27.3317 0.101777 28.9798 0.318518 30.589 0.672013C35.5569 1.76346 40.176 4.15277 43.941 7.62838H43.9437Z" fill="white"/>
<path d="M20.1271 8.69144C20.4838 8.61919 20.8431 8.5521 21.2024 8.49276C20.8431 8.54952 20.4838 8.61403 20.1271 8.69144ZM18.0076 9.26167C18.3565 9.14814 18.708 9.04235 19.0595 8.94688C18.708 9.04235 18.3565 9.14556 18.0076 9.26167ZM15.3101 1.45641C15.6538 1.34546 15.9949 1.23967 16.3386 1.13904C15.9949 1.23451 15.6538 1.3403 15.3101 1.45641Z" fill="white"/>
<path d="M41.6263 33.178L38.7544 33.5419L37.1973 33.7405L31.555 34.4578C29.8183 33.2219 27.8811 32.7729 25.7824 33.1213C20.4812 33.996 15.383 32.3059 11.4305 28.3581C10.0766 27.0035 8.89445 25.347 7.87898 23.6285L10.0036 23.3576L11.5607 23.1589L17.2629 22.4313C17.2942 22.4648 17.3254 22.4984 17.3593 22.5319C19.411 24.5806 21.7831 25.396 24.4103 24.9625C29.7167 24.0852 34.8123 25.7753 38.7648 29.7231C39.9443 30.9023 40.8764 32.0582 41.6289 33.178H41.6263Z" fill="white"/>
<path d="M48.7606 40.6117L47.1411 44.446L42.3423 55.8301L39.762 52.4758C39.611 52.5738 39.4574 52.6667 39.3038 52.757C39.2022 52.8215 39.1007 52.8809 38.9965 52.9428C38.9887 52.9505 38.9731 52.9531 38.9653 52.9583C38.8898 53.0021 38.8169 53.046 38.7439 53.0873L38.5877 53.175C38.5356 53.2034 38.481 53.2343 38.4289 53.2627C38.3846 53.2911 38.343 53.3143 38.2961 53.335C38.1946 53.3969 38.0852 53.4537 37.9837 53.5079C37.8561 53.5775 37.7259 53.6446 37.5983 53.7091C37.4681 53.7762 37.3353 53.8407 37.2077 53.9052C37.1036 53.9568 36.9994 54.0084 36.8953 54.0574C36.7391 54.1349 36.5776 54.2045 36.424 54.2768C36.2339 54.3645 36.0465 54.4471 35.8538 54.5296C35.6637 54.6148 35.4736 54.6896 35.2836 54.7696C35.156 54.8212 35.0232 54.8728 34.893 54.9244C34.7966 54.9631 34.7003 54.9992 34.6014 55.0354C34.5988 55.0354 34.5962 55.0354 34.5962 55.0405C34.4503 55.0921 34.3097 55.1437 34.1665 55.1979C34.0494 55.2392 33.9296 55.2805 33.815 55.3218C33.7551 55.3424 33.6927 55.3631 33.6328 55.3837C33.5677 55.4043 33.5078 55.425 33.4479 55.4456C33.1068 55.5566 32.7657 55.6649 32.422 55.763C32.2476 55.812 32.0757 55.861 31.9039 55.9075C31.7268 55.9539 31.5446 55.9978 31.3675 56.0442C31.2347 56.0778 31.0993 56.1088 30.9691 56.1397C30.8572 56.1681 30.7452 56.1913 30.6358 56.2171C30.5786 56.23 30.5239 56.2403 30.4666 56.2532C30.3442 56.279 30.2218 56.3049 30.0995 56.3307C29.9979 56.3513 29.9042 56.3694 29.8052 56.39C29.7662 56.3977 29.7297 56.4055 29.6907 56.4106C29.5266 56.4416 29.36 56.4726 29.1986 56.4984C28.9981 56.5319 28.8002 56.5655 28.5997 56.5938C28.5841 56.5964 28.5659 56.599 28.5476 56.6016C28.3576 56.6274 28.1675 56.6558 27.9748 56.6764C27.7743 56.7022 27.566 56.7254 27.3629 56.7487C27.1911 56.7667 27.0192 56.7822 26.8448 56.7977C26.6703 56.8106 26.4985 56.8286 26.324 56.8364C26.2355 56.8441 26.147 56.8493 26.0558 56.8519C26.0428 56.8544 26.0324 56.857 26.0194 56.8519C25.9361 56.8596 25.8527 56.8648 25.7668 56.8673C25.7616 56.8673 25.7538 56.8673 25.7486 56.8673C25.6314 56.8751 25.5142 56.8802 25.3997 56.8802C25.3945 56.8802 25.3867 56.8802 25.3789 56.8802C25.2461 56.888 25.1107 56.888 24.9779 56.8931C24.9622 56.8931 24.9518 56.8931 24.9362 56.8931C24.7904 56.8931 24.6472 56.8983 24.5014 56.8983C24.4936 56.8983 24.4832 56.8983 24.4753 56.8983C24.4076 56.8983 24.3373 56.8983 24.267 56.8983C24.0822 56.8983 23.9025 56.8983 23.715 56.8931C23.5041 56.888 23.2958 56.8802 23.0849 56.8725C21.4185 56.8003 19.773 56.5835 18.1586 56.23C13.1933 55.1386 8.57158 52.7493 4.80654 49.2711L10.4958 43.2178C10.8369 43.5378 11.191 43.8422 11.5503 44.1286C11.7299 44.2757 11.9122 44.4176 12.0971 44.5518C12.2819 44.6911 12.4668 44.8279 12.6543 44.9569C12.7454 45.0214 12.8391 45.0885 12.9329 45.1504C13.0058 45.1969 13.0761 45.2433 13.149 45.2923C13.2375 45.3517 13.326 45.4084 13.4172 45.4678C13.5057 45.5246 13.5968 45.5813 13.688 45.6355C13.7765 45.6897 13.865 45.7413 13.9509 45.7929C13.9978 45.8213 14.0421 45.8471 14.0863 45.8729C14.1723 45.9245 14.2582 45.9761 14.3467 46.0225C14.3649 46.0303 14.3806 46.0406 14.3962 46.0483C14.4899 46.1025 14.5837 46.1541 14.68 46.2057C14.8076 46.2754 14.9326 46.3425 15.0628 46.407C15.0732 46.4147 15.081 46.4173 15.0914 46.4251C15.1018 46.4302 15.1096 46.4354 15.12 46.4405C15.2424 46.4999 15.3622 46.5592 15.4846 46.6186C15.6147 46.6857 15.7475 46.745 15.8803 46.8044C16.0834 46.8998 16.2891 46.9901 16.4948 47.0753C16.7005 47.1604 16.9062 47.2456 17.1171 47.323C17.2525 47.3746 17.3853 47.4262 17.5233 47.4726C17.5285 47.4726 17.5337 47.4778 17.5415 47.4778C17.7108 47.5397 17.8852 47.5965 18.0571 47.6533C18.268 47.7229 18.4789 47.7849 18.695 47.8494C19.1194 47.9732 19.5464 48.0816 19.9787 48.1745C20.1583 48.2132 20.3328 48.2519 20.5124 48.2828C20.6556 48.3112 20.7988 48.337 20.942 48.3602H20.9499C21.0123 48.3731 21.0722 48.3809 21.1347 48.3912L21.1451 48.3964C21.2909 48.417 21.4394 48.4428 21.5852 48.4635C21.7492 48.4815 21.908 48.5022 22.0721 48.5228C22.0903 48.5254 22.1033 48.528 22.1215 48.528L22.1346 48.5331C22.2986 48.5486 22.46 48.5641 22.6215 48.5821L22.6657 48.5873C22.848 48.6002 23.0277 48.6105 23.2099 48.626C23.7541 48.657 24.2957 48.6647 24.8399 48.6544C24.9857 48.6544 25.1263 48.6467 25.2721 48.6389C25.2929 48.6389 25.3164 48.6389 25.3372 48.6363C25.3658 48.6363 25.3945 48.6363 25.4257 48.6312C25.5195 48.6312 25.6106 48.6234 25.7017 48.6157C25.7225 48.6157 25.7434 48.6157 25.7616 48.6105C25.8918 48.6028 26.0194 48.5925 26.147 48.5821C26.1574 48.5821 26.1678 48.5822 26.1782 48.5796C26.2016 48.5796 26.2225 48.577 26.2485 48.5744C26.2667 48.5744 26.2798 48.5718 26.3006 48.5693C26.3787 48.5589 26.4594 48.5563 26.5401 48.546C26.5505 48.546 26.5584 48.546 26.5688 48.5434C26.6833 48.528 26.7979 48.5176 26.9099 48.5022C26.9958 48.4944 27.0791 48.4815 27.1624 48.4712C27.1702 48.466 27.1807 48.4712 27.1911 48.466C27.316 48.4506 27.4462 48.4299 27.5738 48.4119C27.73 48.3861 27.8863 48.3577 28.0425 48.3293C28.2456 48.2932 28.4409 48.2545 28.6388 48.2132C28.7794 48.1822 28.92 48.1513 29.058 48.1177C29.0658 48.1177 29.071 48.1151 29.0788 48.1125C29.1517 48.0971 29.2246 48.079 29.3001 48.0584C29.3808 48.0429 29.4615 48.0197 29.5397 47.9964C29.649 47.9681 29.7558 47.9371 29.8625 47.9087C30.0786 47.8519 30.2947 47.7874 30.5109 47.7178C30.6176 47.6868 30.7244 47.6533 30.8311 47.6171C30.9379 47.581 31.0446 47.5423 31.1514 47.5062C31.2581 47.4701 31.3649 47.4314 31.4716 47.3875C31.6773 47.3127 31.8856 47.2327 32.0887 47.1501C32.2163 47.0985 32.3465 47.0443 32.4767 46.9876C32.4897 46.9824 32.5027 46.9747 32.5158 46.9695C32.7084 46.8895 32.9011 46.7992 33.0938 46.7063C33.0938 46.7063 33.0947 46.7046 33.0964 46.7011C33.2084 46.6521 33.3203 46.5979 33.4297 46.5412C33.4453 46.536 33.4635 46.5257 33.4818 46.5179C33.5989 46.4586 33.7161 46.4018 33.8307 46.3399C33.9817 46.2625 34.1327 46.1799 34.2837 46.0974C34.4139 46.0251 34.5415 45.9503 34.6691 45.8755L32.2424 42.7198L36.5542 42.1728L44.5946 41.1484L44.8992 41.1097L48.7554 40.6195L48.7606 40.6117Z" fill="white"/>
<path d="M81.4065 21.4301V37.9283C81.4065 40.942 80.7035 43.2875 79.2949 44.9672C77.8837 46.6495 75.9022 47.4881 73.3479 47.4881C71.1009 47.4881 69.372 46.8766 68.1612 45.6561C66.9479 44.4331 66.3438 42.6011 66.3438 40.155V21.4301H58.0196V40.8104C58.0196 43.4732 58.5481 45.829 59.6053 47.8803C60.6624 49.9342 62.1491 51.5365 64.0655 52.6925C65.9819 53.851 68.2159 54.429 70.7702 54.429C73.7202 54.429 75.923 53.9052 77.3785 52.8576C78.8314 51.81 79.8209 50.7392 80.352 49.6478H81.5393V53.9052H89.7334V21.4301H81.4065Z" fill="white"/>
<path d="M131.422 28.1078C130.055 25.6205 128.251 23.7317 126.004 22.4442C123.757 21.1592 121.314 20.5142 118.672 20.5142C116.687 20.5142 115.026 20.7412 113.683 21.2005C112.339 21.6598 111.259 22.2378 110.446 22.937C109.629 23.6337 108.98 24.3768 108.496 25.1612H107.306V8.07476H98.9819V53.9052H107.173V49.9755H108.363C109.113 51.1985 110.28 52.3106 111.865 53.3143C113.451 54.3181 115.719 54.8212 118.672 54.8212C121.314 54.8212 123.757 54.1761 126.004 52.8886C128.251 51.6036 130.055 49.7149 131.422 47.2275C132.787 44.7376 133.471 41.7264 133.471 38.1915V37.1439C133.471 33.6089 132.787 30.5952 131.422 28.1078ZM125.145 37.9954C125.145 41.1381 124.288 43.5274 122.569 45.1633C120.851 46.8018 118.713 47.6197 116.159 47.6197C113.605 47.6197 111.47 46.8018 109.751 45.1633C108.033 43.5274 107.173 41.1381 107.173 37.9954V37.34C107.173 34.1972 108.033 31.8079 109.751 30.1695C111.47 28.5336 113.605 27.7156 116.159 27.7156C118.713 27.7156 120.906 28.5336 122.601 30.1695C124.298 31.8079 125.145 34.1972 125.145 37.34V37.9954Z" fill="white"/>
<path d="M153.489 21.4301V16.8476C153.489 15.5369 154.104 14.8815 155.338 14.8815H161.022V8.07476H152.432C150.273 8.07476 148.521 8.74047 147.18 10.0693C145.834 11.4033 145.165 13.1811 145.165 15.4078V21.4301H136.838V28.2394H145.165V53.9052H153.489V28.2394H162.076V21.4301H153.489Z" fill="white"/>
<path d="M191.676 21.4301V37.9283C191.676 40.942 190.97 43.2875 189.562 44.9672C188.15 46.6495 186.169 47.4881 183.615 47.4881C181.37 47.4881 179.641 46.8766 178.428 45.6561C177.217 44.4331 176.613 42.6011 176.613 40.155V21.4301H168.286V40.8104C168.286 43.4732 168.815 45.829 169.872 47.8803C170.929 49.9342 172.416 51.5365 174.332 52.6925C176.248 53.851 178.483 54.429 181.039 54.429C183.021 54.429 184.651 54.189 185.927 53.7091C187.205 53.2292 188.218 52.6177 188.968 51.8745C189.718 51.1314 190.265 50.3909 190.619 49.6478H191.809V57.8324C191.809 59.1431 191.191 59.7959 189.957 59.7959H172.119V67H192.733C194.936 67 196.698 66.3343 198.019 65.0029C199.341 63.6715 200 61.8911 200 59.6669V21.4301H191.676Z" fill="white"/>
</svg>
